<?xml version="1.0" encoding="utf-8"?>
<!-- Generator: Adobe Illustrator 26.3.1, SVG Export Plug-In . SVG Version: 6.00 Build 0)  -->
<svg version="1.1" id="Ebene_1" xmlns="http://www.w3.org/2000/svg" xmlns:xlink="http://www.w3.org/1999/xlink" x="0px" y="0px"
	 width="30.4px" height="27.4px" viewBox="0 0 30.4 27.4" style="enable-background:new 0 0 30.4 27.4;" xml:space="preserve">
<style type="text/css">
	.st0{fill:#444444;}
</style>
<path id="Vereinigungsmenge_7" class="st0" d="M1,26.2c-0.7-0.8-1.1-1.8-1-2.9L1.6,8.5c0.1-0.5,0.5-0.9,1-0.9h2.8V5.7
	C5.5,2.5,8,0,11.2,0c1.5,0,2.9,0.6,4,1.7c1.1,1,1.7,2.5,1.6,4v1.9h2.9c0.5,0,1,0.4,1,0.9l0.6,6h-1.9l-0.5-5H17v2.9c0,0.6-0.4,1-1,1
	c-0.6,0-1-0.4-1-1V9.5H7.4v2.9c0,0.6-0.4,1-1,1s-1-0.4-1-1V9.5h-2l-1.5,14c0,0.5,0.2,1.1,0.5,1.5c0.4,0.4,0.9,0.6,1.4,0.6h14.7
	c0.5,0,1-0.2,1.4-0.6c0.4-0.4,0.5-1,0.5-1.5l-0.4-3.4H22l0.3,3.2c0,0.1,0,0.2,0,0.4c0,2.1-1.7,3.8-3.8,3.7c0,0,0,0,0,0H3.7
	C2.7,27.4,1.7,27,1,26.2z M7.3,5.7v1.9H15V5.7c0-1-0.4-2-1.2-2.7c-0.7-0.7-1.7-1.1-2.7-1.1C9,1.9,7.3,3.6,7.3,5.7L7.3,5.7z
	 M24.4,22.5c-0.4-0.4-0.4-1,0-1.3l2.9-2.9H16.7c-0.5,0-0.9-0.4-0.9-0.9c0,0,0,0,0,0c0-0.5,0.4-0.9,0.9-0.9l0,0h10.5l-2.8-2.8
	c-0.4-0.4-0.4-1,0-1.3c0.4-0.4,1-0.4,1.3,0c0,0,0,0,0,0l4.4,4.4c0.2,0.2,0.3,0.4,0.3,0.7c0,0.1,0,0.1,0,0.2c0,0.2-0.1,0.4-0.3,0.6
	l-4.4,4.4c-0.2,0.2-0.4,0.3-0.7,0.3C24.8,22.7,24.6,22.6,24.4,22.5L24.4,22.5z"/>
</svg>
